<svg version="1.1" id="Layer_1" xmlns="http://www.w3.org/2000/svg" xmlns:xlink="http://www.w3.org/1999/xlink" x="0px" y="0px"
	 width="100%" viewBox="0 0 1920 700" enable-background="new 0 0 1920 700" xml:space="preserve">
<path fill="#ffffff" opacity="1.000000" stroke="none" 
	d="
M1305.000000,701.000000 
	C870.000000,701.000000 435.500000,701.000000 1.000000,701.000000 
	C1.000000,467.666656 1.000000,234.333328 1.000000,1.000000 
	C641.000000,1.000000 1281.000000,1.000000 1921.000000,1.000000 
	C1921.000000,234.333328 1921.000000,467.666656 1921.000000,701.000000 
	C1715.833374,701.000000 1510.666626,701.000000 1305.000000,701.000000 
M1079.013672,387.982880 
	C1079.013672,387.982880 1079.102905,387.958496 1079.062012,387.094543 
	C1080.681152,386.729706 1082.299194,386.052246 1083.919556,386.046387 
	C1113.278442,385.940430 1142.637695,385.915375 1172.789795,386.031250 
	C1174.218384,382.951080 1180.040161,382.293243 1178.097290,378.011841 
	C1175.574097,376.420197 1173.755127,375.272736 1171.012939,374.012329 
	C1137.367188,374.050293 1103.721558,374.088257 1069.314209,373.994293 
	C1065.374634,375.855896 1064.392578,379.201477 1065.040894,383.119324 
	C1065.374268,385.133514 1066.056763,387.157227 1066.952637,388.995850 
	C1068.455322,392.079956 1070.254517,395.019562 1072.237061,398.643066 
	C1073.142944,398.719177 1074.048828,398.795288 1075.885742,399.031250 
	C1093.602295,398.968628 1111.318848,398.906036 1129.733765,398.970856 
	C1130.217407,398.357513 1130.701050,397.744171 1131.794312,396.878387 
	C1133.170532,390.228882 1131.978516,388.063812 1126.047485,388.018005 
	C1110.363647,387.976044 1094.679810,387.934082 1079.013672,387.982880 
M1074.998047,345.008850 
	C1108.295410,344.957886 1141.592773,344.906952 1175.678223,344.998596 
	C1182.898682,339.568451 1182.934570,338.090088 1175.496948,333.044403 
	C1175.496948,333.044403 1175.033813,333.142517 1174.105469,332.973907 
	C1164.802734,332.964813 1155.499878,332.931946 1146.197144,332.951202 
	C1120.121338,333.005157 1094.045410,333.080627 1067.501587,333.061035 
	C1067.501587,333.061035 1067.038940,333.173279 1066.326782,333.205475 
	C1065.263184,334.384521 1063.292725,335.553253 1063.279175,336.744232 
	C1063.167969,346.523743 1063.769409,356.320648 1063.397705,366.083466 
	C1063.240967,370.199860 1065.319702,370.444946 1068.978638,370.983551 
	C1094.609985,370.955200 1120.241333,370.926849 1146.616455,370.950500 
	C1147.417236,369.970490 1148.036743,368.703583 1149.051636,368.062897 
	C1152.432007,365.929047 1150.970703,364.005890 1149.397339,361.511292 
	C1147.751587,358.901794 1146.583008,357.593903 1144.232056,360.718689 
	C1143.898071,361.162445 1142.661987,360.995911 1141.843384,360.996399 
	C1120.223633,361.009064 1098.603882,361.034546 1076.984741,360.921265 
	C1075.939575,360.915802 1074.901001,359.666565 1074.334839,358.250946 
	C1076.156372,358.167297 1077.977783,358.010986 1079.799316,358.010559 
	C1133.390503,357.997528 1186.981689,357.988464 1240.572876,358.006439 
	C1258.711304,358.012543 1276.849854,358.093323 1294.971924,359.002777 
	C1293.655029,359.670898 1292.346191,360.900177 1291.020142,360.918793 
	C1279.944336,361.074371 1268.864380,361.081635 1257.788208,360.943054 
	C1255.629761,360.916077 1253.481567,360.061279 1251.170532,359.553558 
	C1246.108398,366.183319 1246.348511,367.768311 1254.033081,370.987305 
	C1267.005005,371.012390 1279.976929,371.037476 1293.002319,371.934357 
	C1292.338623,372.955048 1291.707031,374.835693 1291.006226,374.861816 
	C1284.793335,375.093384 1278.567993,374.996368 1271.994019,374.996368 
	C1270.638184,377.441559 1266.637817,380.501984 1272.273926,384.718750 
	C1276.654785,385.145813 1281.052002,385.457886 1285.406738,386.070557 
	C1286.700684,386.252655 1287.875732,387.279419 1288.932495,388.685669 
	C1286.975830,393.177002 1285.019043,397.668335 1282.123901,402.030365 
	C1263.743286,402.052124 1245.362671,402.073883 1226.234985,401.951324 
	C1225.311035,402.965088 1224.066528,403.837067 1223.540527,405.026703 
	C1222.800781,406.699738 1221.661255,409.266693 1222.368408,410.269043 
	C1223.560181,411.958252 1226.068237,412.718811 1228.951538,413.981628 
	C1244.584351,414.012909 1260.217163,414.044159 1275.674805,414.740723 
	C1266.594482,428.746399 1254.448608,439.543945 1240.116333,447.818695 
	C1228.523682,454.511749 1216.245361,459.311951 1202.742432,461.161041 
	C1193.731689,462.394989 1184.931396,464.668427 1175.721680,463.068054 
	C1171.354370,462.309174 1166.771729,462.586792 1162.499756,461.531799 
	C1156.561279,460.065186 1150.648071,458.191315 1145.040405,455.761566 
	C1136.920532,452.243256 1129.083618,448.071594 1121.125977,444.178650 
	C1125.614990,442.976074 1129.529907,442.534180 1133.452637,442.178589 
	C1137.018311,441.855377 1138.593262,439.760406 1137.944458,436.463287 
	C1137.348755,433.435425 1135.528687,431.174774 1131.061035,431.020172 
	C1122.059814,431.053558 1113.058594,431.086945 1103.270874,430.944122 
	C1098.322998,433.527313 1096.563599,437.953125 1099.776123,441.121490 
	C1104.073853,445.359955 1108.605957,449.554230 1113.666748,452.780151 
	C1121.255493,457.617615 1129.238525,461.913971 1137.351562,465.822632 
	C1142.192505,468.154816 1147.556030,469.469238 1152.769043,470.942657 
	C1157.899902,472.392853 1163.104248,472.444824 1168.511963,472.221558 
	C1178.237549,471.820007 1188.013916,472.691467 1197.770630,472.974731 
	C1200.921631,473.066254 1204.157349,473.418732 1207.210938,472.863464 
	C1210.826538,472.206055 1214.288696,470.700439 1217.814941,469.554932 
	C1224.871704,467.262512 1232.469727,465.949036 1238.849121,462.428009 
	C1247.403809,457.706360 1255.549927,451.882538 1262.889160,445.416870 
	C1271.097534,438.185394 1279.401733,430.523285 1285.515015,421.579620 
	C1294.664307,408.194458 1302.142700,393.596161 1304.036499,376.980103 
	C1304.355103,374.184052 1303.942627,371.312500 1304.032471,368.481049 
	C1304.310303,359.727448 1305.580566,350.886200 1304.727661,342.250610 
	C1303.932129,334.195465 1306.676880,325.815033 1301.829712,317.915741 
	C1299.020386,313.337250 1298.853149,307.216125 1296.521362,302.247040 
	C1293.177734,295.121521 1289.675537,287.852844 1284.925171,281.653687 
	C1276.881470,271.157043 1268.070312,261.314362 1257.140015,253.406219 
	C1245.850586,245.238342 1233.907593,238.557251 1220.692627,234.400085 
	C1212.036377,231.676987 1202.923950,230.909546 1193.835693,231.049561 
	C1185.076050,231.184494 1176.238159,232.543549 1167.593018,231.714066 
	C1161.275391,231.107895 1155.839966,232.605469 1150.190918,234.348633 
	C1147.939453,235.043411 1145.801514,236.805176 1143.597290,236.831177 
	C1135.086670,236.931549 1129.258423,243.086105 1122.168823,246.214966 
	C1115.200684,249.290283 1109.205688,254.736618 1103.090820,259.533997 
	C1096.530884,264.680450 1096.419312,268.755859 1103.031372,272.986267 
	C1114.319336,272.945557 1125.607422,272.904846 1137.596680,272.868530 
	C1138.876953,270.522888 1143.142700,270.031067 1141.479126,265.787720 
	C1139.755981,261.392242 1136.316406,261.946686 1132.853271,261.991669 
	C1128.972290,262.042053 1125.090332,262.003204 1121.208740,262.003204 
	C1121.042358,261.451172 1120.875977,260.899170 1120.709595,260.347137 
	C1126.593506,257.221588 1132.401123,253.940903 1138.378906,251.006821 
	C1147.313965,246.621231 1156.858765,244.523605 1166.649170,242.613480 
	C1182.569092,239.507553 1197.988159,240.905106 1213.308960,244.962982 
	C1226.532227,248.465317 1238.770630,254.260513 1249.877075,262.422302 
	C1262.119507,271.418976 1272.197510,282.399811 1279.625610,295.548950 
	C1283.691284,302.746185 1287.192505,310.470917 1289.537231,318.376251 
	C1292.181641,327.292450 1293.240356,336.678955 1294.057739,345.980835 
	C1222.241333,345.987213 1150.425049,345.999237 1078.608643,345.961884 
	C1077.095825,345.961090 1075.583252,345.390778 1074.998047,345.008850 
M1072.012085,329.986298 
	C1088.338745,329.951111 1104.665405,329.915924 1121.767944,330.034302 
	C1128.364014,326.690002 1130.982422,324.484344 1124.737061,319.170959 
	C1123.047241,318.780029 1121.359985,318.063721 1119.667236,318.050262 
	C1107.441162,317.953094 1095.213135,318.056763 1082.988037,317.912048 
	C1081.692871,317.896729 1080.411865,316.688904 1080.045776,316.050171 
	C1085.039185,316.050934 1090.072510,315.660400 1095.014282,316.165710 
	C1099.691528,316.643951 1102.836182,315.185272 1104.933105,311.001251 
	C1103.445190,306.701111 1100.717163,304.520966 1095.739502,304.859253 
	C1090.106323,305.242126 1084.309082,305.667480 1078.798096,304.763489 
	C1072.053223,303.657074 1069.451050,307.985016 1067.330200,312.396393 
	C1065.703735,315.779602 1065.410156,319.919067 1065.063599,323.770752 
	C1064.699463,327.817871 1067.214966,329.678040 1072.012085,329.986298 
M1102.835327,298.831970 
	C1103.378174,297.172485 1103.920898,295.513031 1104.463623,293.853546 
	C1101.859619,293.465027 1101.622559,288.138153 1097.410034,290.675629 
	C1096.139038,291.441193 1094.016968,290.794098 1091.336182,290.794098 
	C1092.639893,289.397278 1093.350708,288.635681 1094.984863,287.987549 
	C1111.508301,287.991699 1128.031738,288.019714 1144.554932,287.959930 
	C1146.063354,287.954468 1147.569702,287.386566 1149.806030,287.044922 
	C1151.142700,285.107025 1153.539673,283.183380 1153.565918,281.227936 
	C1153.604736,278.341919 1151.151855,276.359894 1147.001709,276.015564 
	C1128.051147,276.041168 1109.100464,276.066772 1089.422852,275.925049 
	C1083.032104,280.092987 1080.088989,286.734833 1076.875854,293.224884 
	C1075.045166,296.922668 1075.973633,299.086945 1080.067261,300.877258 
	C1080.501099,301.242096 1080.930908,301.918945 1081.369385,301.924622 
	C1087.252319,302.000702 1093.142944,302.128906 1099.014038,301.858643 
	C1100.111450,301.808075 1101.130981,300.067627 1102.835327,298.831970 
M1171.599854,427.847900 
	C1176.369507,422.850403 1176.303589,421.459534 1170.635742,416.182129 
	C1145.112183,416.163055 1119.588745,416.143951 1093.414062,415.829559 
	C1093.314697,415.244202 1093.215210,414.658844 1093.115845,414.073486 
	C1094.602051,414.055420 1096.096802,413.926575 1097.572754,414.040680 
	C1101.560547,414.348907 1104.547852,411.696747 1104.586914,408.743835 
	C1104.615967,406.559265 1101.009033,404.326538 1098.088013,402.021484 
	C1092.716553,402.061310 1087.345215,402.101166 1081.261963,402.011658 
	C1074.929321,406.411926 1074.400269,409.600647 1078.952759,415.544434 
	C1079.730469,416.559723 1080.169434,417.865082 1081.039307,418.773560 
	C1084.000366,421.865753 1087.084229,424.840363 1091.031982,427.986389 
	C1117.645874,427.944519 1144.259766,427.902618 1171.599854,427.847900 
M445.000000,314.500000 
	C445.000000,358.914185 445.000000,403.328369 445.000000,448.000000 
	C473.325958,448.000000 501.119019,448.071167 528.911377,447.960236 
	C538.258789,447.922943 547.218445,445.402496 555.244202,440.854370 
	C575.562622,429.340088 586.324402,406.047516 581.835632,383.244751 
	C580.590210,376.918091 578.215942,370.600006 575.217163,364.876556 
	C568.981628,352.975525 559.534912,344.351929 546.020813,340.504822 
	C546.758667,339.836578 547.066650,339.344208 547.490479,339.205170 
	C557.372070,335.964691 564.234253,329.006927 569.698853,320.616760 
	C574.630493,313.044922 576.422241,304.568451 577.255615,295.485596 
	C578.210022,285.084412 576.649536,275.307831 571.683899,266.639404 
	C561.830322,249.438080 545.763489,241.547607 526.438477,241.134995 
	C500.795380,240.587479 475.131805,240.996246 449.477020,241.010010 
	C448.043610,241.010773 446.610229,241.156189 445.000000,241.243912 
	C445.000000,265.561432 445.000000,289.530731 445.000000,314.500000 
M1366.000000,400.500000 
	C1366.000000,386.080078 1366.000000,371.660156 1366.000000,357.000702 
	C1383.487427,357.000702 1400.297485,356.893951 1417.101318,357.170227 
	C1418.733276,357.197052 1420.897705,359.277649 1421.817383,360.952637 
	C1423.680054,364.345184 1424.817261,368.130707 1426.325928,371.723907 
	C1432.868164,387.306793 1439.451904,402.872284 1445.989380,418.457092 
	C1450.121948,428.308838 1454.199463,438.183563 1458.249146,447.921570 
	C1468.599976,447.921570 1478.420288,447.921570 1489.029907,447.921570 
	C1475.218018,415.932617 1461.545410,384.266327 1447.817261,352.471436 
	C1452.573242,349.925110 1457.152588,347.819031 1461.373047,345.146179 
	C1472.229370,338.270752 1478.596558,327.988220 1481.913574,315.877808 
	C1484.588013,306.112640 1484.712646,296.130493 1483.064575,286.064178 
	C1481.383789,275.798676 1477.250000,266.778442 1470.468750,259.002716 
	C1459.198364,246.079498 1443.803345,241.711243 1427.768677,241.242874 
	C1398.638916,240.391998 1369.466431,241.004730 1340.311768,241.018433 
	C1339.684570,241.018723 1339.057251,241.161179 1338.256226,241.258408 
	C1338.256226,310.174988 1338.256226,378.878265 1338.256226,447.697388 
	C1347.569214,447.697388 1356.623657,447.697388 1366.000000,447.697388 
	C1366.000000,432.097992 1366.000000,416.799011 1366.000000,400.500000 
M222.209839,248.020340 
	C210.646286,243.456924 198.763962,240.827911 186.217651,240.938522 
	C162.220932,241.150101 138.220993,241.000000 114.222397,241.000000 
	C110.934120,241.000000 107.645851,241.000000 104.210281,241.000000 
	C104.210281,310.155975 104.210281,378.891571 104.210281,447.785828 
	C113.159431,447.785828 121.897537,447.785828 131.034088,447.785828 
	C131.034088,417.502045 131.034088,387.429169 131.034088,357.180054 
	C149.537079,357.180054 167.641281,357.180054 185.759796,357.180054 
	C187.709808,361.861298 189.604324,366.468292 191.544510,371.055969 
	C197.349365,384.782043 203.230286,398.476227 208.969131,412.229797 
	C213.409668,422.871918 217.600189,433.619019 222.118301,444.227264 
	C222.766785,445.749847 224.597870,447.785797 225.941345,447.831543 
	C235.213699,448.147247 244.501923,447.997711 254.510452,447.997711 
	C240.596054,415.683380 226.943298,383.976715 213.258530,352.195679 
	C213.766571,351.815613 214.232483,351.243591 214.819702,351.060333 
	C231.108902,345.976868 240.971344,334.411224 246.500488,318.902039 
	C249.743042,309.806732 249.723877,300.214539 249.039001,290.626740 
	C248.442444,282.275024 245.875275,274.653473 241.897888,267.327606 
	C237.414276,259.069366 230.372208,253.543930 222.209839,248.020340 
M639.500000,241.000000 
	C630.069580,241.000000 620.639099,241.000000 611.275146,241.000000 
	C611.275146,310.301727 611.275146,379.029663 611.275146,447.730530 
	C654.616089,447.730530 697.681396,447.730530 740.728027,447.730530 
	C740.728027,439.386749 740.728027,431.314850 740.728027,422.856262 
	C706.722778,422.856262 672.987549,422.856262 639.267700,422.856262 
	C639.267700,400.059906 639.267700,377.657898 639.267700,354.863678 
	C668.269409,354.863678 697.005737,354.863678 725.732117,354.863678 
	C725.732117,346.395111 725.732117,338.323364 725.732117,329.863251 
	C696.730225,329.863251 667.993835,329.863251 639.265076,329.863251 
	C639.265076,308.398834 639.265076,287.329956 639.265076,266.000000 
	C640.666931,266.000000 641.805542,266.000000 642.944153,266.000000 
	C673.604065,266.000000 704.264343,265.936707 734.923584,266.078827 
	C738.825134,266.096893 740.348450,265.084351 740.075867,261.020905 
	C739.753113,256.210297 739.721802,251.340622 740.081665,246.535294 
	C740.412903,242.112091 738.890137,240.878571 734.478821,240.903976 
	C703.153381,241.084320 671.826477,241.000000 639.500000,241.000000 
M363.500000,423.000000 
	C345.405029,423.000000 327.310059,423.000000 309.287201,423.000000 
	C309.287201,400.022980 309.287201,377.619537 309.287201,354.822388 
	C338.643646,354.822388 367.714813,354.822388 396.709656,354.822388 
	C396.709656,346.349670 396.709656,338.276978 396.709656,329.816040 
	C367.350006,329.816040 338.278809,329.816040 309.291534,329.816040 
	C309.291534,308.347717 309.291534,287.277374 309.291534,265.814362 
	C342.985199,265.814362 376.389008,265.814362 409.705994,265.814362 
	C409.705994,257.342407 409.705994,249.269714 409.705994,241.291962 
	C367.010193,241.291962 324.609039,241.291962 282.285919,241.291962 
	C282.285919,310.315979 282.285919,379.047638 282.285919,447.716248 
	C325.640137,447.716248 368.707825,447.716248 411.713074,447.716248 
	C411.713074,439.356903 411.713074,431.284363 411.713074,423.000000 
	C395.784729,423.000000 380.142365,423.000000 363.500000,423.000000 
M1695.000000,424.500000 
	C1695.000000,432.259094 1695.000000,440.018188 1695.000000,447.614197 
	C1738.741455,447.614197 1781.792603,447.614197 1824.742310,447.614197 
	C1824.742310,439.287140 1824.742310,431.348328 1824.742310,422.907013 
	C1790.433594,422.907013 1756.378540,422.907013 1722.346436,422.907013 
	C1722.346436,400.009308 1722.346436,377.622040 1722.346436,354.728607 
	C1751.746338,354.728607 1780.802734,354.728607 1809.737549,354.728607 
	C1809.737549,346.277832 1809.737549,338.339325 1809.737549,329.896454 
	C1780.423462,329.896454 1751.367065,329.896454 1722.352539,329.896454 
	C1722.352539,308.330505 1722.352539,287.276184 1722.352539,265.717346 
	C1756.091309,265.717346 1789.479858,265.717346 1822.732422,265.717346 
	C1822.732422,257.267242 1822.732422,249.328751 1822.732422,241.308899 
	C1780.080078,241.308899 1737.696045,241.308899 1695.000000,241.308899 
	C1695.000000,302.244843 1695.000000,362.872406 1695.000000,424.500000 
M1632.939331,394.132629 
	C1629.240112,406.959900 1622.025024,416.946228 1609.670654,422.700104 
	C1601.441650,426.532593 1592.675781,426.273010 1583.878418,426.033722 
	C1569.442139,425.641022 1558.284546,419.221191 1549.983643,407.720123 
	C1540.632812,394.764526 1537.751343,379.526947 1537.247070,364.197601 
	C1536.649658,346.039276 1535.684204,327.746429 1538.979736,309.646606 
	C1540.958130,298.780487 1544.248169,288.260925 1551.109253,279.630951 
	C1563.467285,264.086914 1581.040649,260.425873 1599.205811,263.510101 
	C1616.955322,266.523773 1628.147949,278.535187 1631.946777,296.490021 
	C1633.288086,302.829376 1633.862183,309.331055 1634.763672,315.599854 
	C1643.768799,315.599854 1652.824951,315.599854 1662.752197,315.599854 
	C1661.796021,307.614838 1661.090820,300.100281 1659.962646,292.649750 
	C1657.764771,278.136047 1651.181641,265.622131 1640.801758,255.462463 
	C1627.502441,242.445618 1610.491821,237.994522 1592.509888,237.155197 
	C1586.031128,236.852783 1579.460938,238.254639 1572.947021,239.005066 
	C1549.287231,241.730850 1532.389893,254.406448 1521.530151,275.108093 
	C1511.769897,293.714111 1509.145996,314.186646 1508.131226,334.805725 
	C1507.685425,343.862579 1508.655640,352.989990 1509.001221,362.084686 
	C1509.575562,377.197876 1512.251831,391.857422 1517.918701,405.966278 
	C1530.701660,437.791748 1553.371948,450.155823 1583.434937,451.822205 
	C1592.223511,452.309357 1601.274170,451.437225 1609.952026,449.826904 
	C1626.108032,446.828918 1639.455444,438.626495 1648.956543,424.972290 
	C1655.568970,415.469635 1659.321289,404.700867 1660.899292,393.297821 
	C1661.812866,386.696564 1661.853638,379.974548 1662.282593,373.377258 
	C1652.595093,373.377258 1643.866821,373.377258 1635.697632,373.377258 
	C1634.755737,380.312897 1633.874756,386.800720 1632.939331,394.132629 
M1013.499634,241.000000 
	C980.090149,241.000000 946.680603,241.000000 913.339844,241.000000 
	C913.339844,310.354126 913.339844,379.052094 913.339844,447.614868 
	C922.740906,447.614868 931.797363,447.614868 941.161621,447.614868 
	C941.161621,417.301727 941.161621,387.372620 941.161621,356.945984 
	C968.196106,356.945984 994.913025,356.945984 1021.676697,356.945984 
	C1021.676697,348.386536 1021.676697,340.332001 1021.676697,331.783478 
	C994.639526,331.783478 967.922668,331.783478 941.396973,331.783478 
	C941.396973,309.563782 941.396973,287.846924 941.396973,265.814880 
	C972.055237,265.814880 1002.317566,265.814880 1032.700439,265.814880 
	C1032.700439,257.435944 1032.700439,249.381897 1032.700439,241.000000 
	C1026.437012,241.000000 1020.468201,241.000000 1013.499634,241.000000 
M888.000000,440.440765 
	C888.000000,434.679504 888.000000,428.918274 888.000000,422.776306 
	C859.310425,422.776306 831.238037,422.776306 802.776123,422.776306 
	C802.776123,361.976257 802.776123,301.573944 802.776123,241.313171 
	C793.637512,241.313171 784.897095,241.313171 776.310913,241.313171 
	C776.310913,310.361023 776.310913,379.095367 776.310913,447.687988 
	C813.692139,447.687988 850.761841,447.687988 888.000000,447.687988 
	C888.000000,445.392609 888.000000,443.408234 888.000000,440.440765 
M1265.312622,338.958954 
	C1272.348145,334.486420 1279.903198,317.645630 1277.854736,309.857880 
	C1275.992188,302.776367 1275.438965,295.497253 1271.312866,288.792328 
	C1264.314575,277.420502 1254.908325,270.156281 1241.797607,269.175201 
	C1230.794678,268.351837 1220.120239,278.423828 1217.030518,289.019928 
	C1216.107422,292.185822 1215.704102,295.541656 1215.420044,298.841248 
	C1215.246338,300.859436 1215.909668,302.937286 1215.895874,304.986267 
	C1215.887451,306.235046 1214.705078,307.710663 1215.080322,308.689087 
	C1217.492432,314.977234 1219.535645,321.545715 1222.951416,327.276276 
	C1227.635620,335.134735 1234.712402,340.508301 1243.670410,343.416229 
	C1249.436157,345.287842 1260.206909,343.482208 1265.312622,338.958954 
z"/>
<path fill="#FFFFFF" opacity="1.000000" stroke="none" 
	d="
M445.000000,314.000000 
	C445.000000,289.530731 445.000000,265.561432 445.000000,241.243912 
	C446.610229,241.156189 448.043610,241.010773 449.477020,241.010010 
	C475.131805,240.996246 500.795380,240.587479 526.438477,241.134995 
	C545.763489,241.547607 561.830322,249.438080 571.683899,266.639404 
	C576.649536,275.307831 578.210022,285.084412 577.255615,295.485596 
	C576.422241,304.568451 574.630493,313.044922 569.698853,320.616760 
	C564.234253,329.006927 557.372070,335.964691 547.490479,339.205170 
	C547.066650,339.344208 546.758667,339.836578 546.020813,340.504822 
	C559.534912,344.351929 568.981628,352.975525 575.217163,364.876556 
	C578.215942,370.600006 580.590210,376.918091 581.835632,383.244751 
	C586.324402,406.047516 575.562622,429.340088 555.244202,440.854370 
	C547.218445,445.402496 538.258789,447.922943 528.911377,447.960236 
	C501.119019,448.071167 473.325958,448.000000 445.000000,448.000000 
	C445.000000,403.328369 445.000000,358.914185 445.000000,314.000000 
M473.000000,407.496704 
	C473.000000,412.591614 473.000000,417.686523 473.000000,422.999603 
	C490.840820,422.999603 508.137634,423.399353 525.399536,422.797607 
	C532.055664,422.565521 538.571045,419.986542 543.609924,414.903107 
	C552.841980,405.589294 555.661743,394.296661 552.861267,381.864746 
	C549.408142,366.535797 536.074890,354.590424 519.365051,354.957153 
	C508.886078,355.187134 498.397919,355.000000 487.913910,355.000000 
	C482.995239,355.000000 478.076538,355.000000 473.000000,355.000000 
	C473.000000,372.580902 473.000000,389.539551 473.000000,407.496704 
M489.501770,330.000000 
	C497.498260,330.000000 505.494781,329.992065 513.491272,330.001862 
	C525.240601,330.016266 535.134216,326.238800 542.787292,316.823486 
	C550.183960,307.723602 550.687988,287.358276 543.613892,277.999390 
	C537.228577,269.551849 528.769287,265.987671 518.467773,265.997040 
	C505.140228,266.009186 491.812683,266.000000 478.485138,266.000000 
	C476.722443,266.000000 474.959747,266.000000 473.288025,266.000000 
	C473.288025,287.653931 473.288025,308.719910 473.288025,330.000000 
	C478.549866,330.000000 483.526581,330.000000 489.501770,330.000000 
z"/>
<path fill="#019ADE" opacity="1.000000" stroke="none" 
	d="
M1366.000000,401.000000 
	C1366.000000,416.799011 1366.000000,432.097992 1366.000000,447.697388 
	C1356.623657,447.697388 1347.569214,447.697388 1338.256226,447.697388 
	C1338.256226,378.878265 1338.256226,310.174988 1338.256226,241.258408 
	C1339.057251,241.161179 1339.684570,241.018723 1340.311768,241.018433 
	C1369.466431,241.004730 1398.638916,240.391998 1427.768677,241.242874 
	C1443.803345,241.711243 1459.198364,246.079498 1470.468750,259.002716 
	C1477.250000,266.778442 1481.383789,275.798676 1483.064575,286.064178 
	C1484.712646,296.130493 1484.588013,306.112640 1481.913574,315.877808 
	C1478.596558,327.988220 1472.229370,338.270752 1461.373047,345.146179 
	C1457.152588,347.819031 1452.573242,349.925110 1447.817261,352.471436 
	C1461.545410,384.266327 1475.218018,415.932617 1489.029907,447.921570 
	C1478.420288,447.921570 1468.599976,447.921570 1458.249146,447.921570 
	C1454.199463,438.183563 1450.121948,428.308838 1445.989380,418.457092 
	C1439.451904,402.872284 1432.868164,387.306793 1426.325928,371.723907 
	C1424.817261,368.130707 1423.680054,364.345184 1421.817383,360.952637 
	C1420.897705,359.277649 1418.733276,357.197052 1417.101318,357.170227 
	C1400.297485,356.893951 1383.487427,357.000702 1366.000000,357.000702 
	C1366.000000,371.660156 1366.000000,386.080078 1366.000000,401.000000 
M1445.991699,322.510742 
	C1453.121094,315.242157 1455.275879,306.439178 1455.109985,296.427307 
	C1454.801880,277.844849 1441.671021,266.867004 1425.021729,266.175476 
	C1406.555420,265.408508 1388.032715,265.994354 1369.534546,266.015778 
	C1368.432251,266.017059 1367.330200,266.237335 1366.382080,266.339142 
	C1366.382080,288.392883 1366.382080,310.115753 1366.382080,332.000000 
	C1384.921875,332.000000 1403.080566,331.918640 1421.237915,332.033813 
	C1430.520630,332.092682 1438.440674,328.832611 1445.991699,322.510742 
z"/>
<path fill="#FFFFFF" opacity="1.000000" stroke="none" 
	d="
M222.553711,248.196411 
	C230.372208,253.543930 237.414276,259.069366 241.897888,267.327606 
	C245.875275,274.653473 248.442444,282.275024 249.039001,290.626740 
	C249.723877,300.214539 249.743042,309.806732 246.500488,318.902039 
	C240.971344,334.411224 231.108902,345.976868 214.819702,351.060333 
	C214.232483,351.243591 213.766571,351.815613 213.258530,352.195679 
	C226.943298,383.976715 240.596054,415.683380 254.510452,447.997711 
	C244.501923,447.997711 235.213699,448.147247 225.941345,447.831543 
	C224.597870,447.785797 222.766785,445.749847 222.118301,444.227264 
	C217.600189,433.619019 213.409668,422.871918 208.969131,412.229797 
	C203.230286,398.476227 197.349365,384.782043 191.544510,371.055969 
	C189.604324,366.468292 187.709808,361.861298 185.759796,357.180054 
	C167.641281,357.180054 149.537079,357.180054 131.034088,357.180054 
	C131.034088,387.429169 131.034088,417.502045 131.034088,447.785828 
	C121.897537,447.785828 113.159431,447.785828 104.210281,447.785828 
	C104.210281,378.891571 104.210281,310.155975 104.210281,241.000000 
	C107.645851,241.000000 110.934120,241.000000 114.222397,241.000000 
	C138.220993,241.000000 162.220932,241.150101 186.217651,240.938522 
	C198.763962,240.827911 210.646286,243.456924 222.553711,248.196411 
M215.603729,279.080780 
	C207.779785,268.974976 197.091995,265.811249 184.809448,265.952362 
	C168.153732,266.143768 151.494156,265.993469 134.836273,266.013123 
	C133.579971,266.014587 132.323898,266.202698 131.000000,266.309509 
	C131.000000,277.513672 131.000000,288.335358 131.000000,299.157043 
	C131.000000,310.070404 131.000000,320.983795 131.000000,331.999969 
	C151.324753,331.999969 170.992264,332.523041 190.613754,331.798767 
	C201.922714,331.381378 211.411407,325.842163 216.787964,315.401306 
	C222.897217,303.537689 222.379074,291.495697 215.603729,279.080780 
z"/>
<path fill="#FFFFFF" opacity="1.000000" stroke="none" 
	d="
M640.000000,241.000000 
	C671.826477,241.000000 703.153381,241.084320 734.478821,240.903976 
	C738.890137,240.878571 740.412903,242.112091 740.081665,246.535294 
	C739.721802,251.340622 739.753113,256.210297 740.075867,261.020905 
	C740.348450,265.084351 738.825134,266.096893 734.923584,266.078827 
	C704.264343,265.936707 673.604065,266.000000 642.944153,266.000000 
	C641.805542,266.000000 640.666931,266.000000 639.265076,266.000000 
	C639.265076,287.329956 639.265076,308.398834 639.265076,329.863251 
	C667.993835,329.863251 696.730225,329.863251 725.732117,329.863251 
	C725.732117,338.323364 725.732117,346.395111 725.732117,354.863678 
	C697.005737,354.863678 668.269409,354.863678 639.267700,354.863678 
	C639.267700,377.657898 639.267700,400.059906 639.267700,422.856262 
	C672.987549,422.856262 706.722778,422.856262 740.728027,422.856262 
	C740.728027,431.314850 740.728027,439.386749 740.728027,447.730530 
	C697.681396,447.730530 654.616089,447.730530 611.275146,447.730530 
	C611.275146,379.029663 611.275146,310.301727 611.275146,241.000000 
	C620.639099,241.000000 630.069580,241.000000 640.000000,241.000000 
z"/>
<path fill="#FFFFFF" opacity="1.000000" stroke="none" 
	d="
M364.000000,423.000000 
	C380.142365,423.000000 395.784729,423.000000 411.713074,423.000000 
	C411.713074,431.284363 411.713074,439.356903 411.713074,447.716248 
	C368.707825,447.716248 325.640137,447.716248 282.285919,447.716248 
	C282.285919,379.047638 282.285919,310.315979 282.285919,241.291962 
	C324.609039,241.291962 367.010193,241.291962 409.705994,241.291962 
	C409.705994,249.269714 409.705994,257.342407 409.705994,265.814362 
	C376.389008,265.814362 342.985199,265.814362 309.291534,265.814362 
	C309.291534,287.277374 309.291534,308.347717 309.291534,329.816040 
	C338.278809,329.816040 367.350006,329.816040 396.709656,329.816040 
	C396.709656,338.276978 396.709656,346.349670 396.709656,354.822388 
	C367.714813,354.822388 338.643646,354.822388 309.287201,354.822388 
	C309.287201,377.619537 309.287201,400.022980 309.287201,423.000000 
	C327.310059,423.000000 345.405029,423.000000 364.000000,423.000000 
z"/>
<path fill="#019ADE" opacity="1.000000" stroke="none" 
	d="
M1695.000000,424.000000 
	C1695.000000,362.872406 1695.000000,302.244843 1695.000000,241.308899 
	C1737.696045,241.308899 1780.080078,241.308899 1822.732422,241.308899 
	C1822.732422,249.328751 1822.732422,257.267242 1822.732422,265.717346 
	C1789.479858,265.717346 1756.091309,265.717346 1722.352539,265.717346 
	C1722.352539,287.276184 1722.352539,308.330505 1722.352539,329.896454 
	C1751.367065,329.896454 1780.423462,329.896454 1809.737549,329.896454 
	C1809.737549,338.339325 1809.737549,346.277832 1809.737549,354.728607 
	C1780.802734,354.728607 1751.746338,354.728607 1722.346436,354.728607 
	C1722.346436,377.622040 1722.346436,400.009308 1722.346436,422.907013 
	C1756.378540,422.907013 1790.433594,422.907013 1824.742310,422.907013 
	C1824.742310,431.348328 1824.742310,439.287140 1824.742310,447.614197 
	C1781.792603,447.614197 1738.741455,447.614197 1695.000000,447.614197 
	C1695.000000,440.018188 1695.000000,432.259094 1695.000000,424.000000 
z"/>
<path fill="#019ADE" opacity="1.000000" stroke="none" 
	d="
M1632.966553,393.710571 
	C1633.874756,386.800720 1634.755737,380.312897 1635.697632,373.377258 
	C1643.866821,373.377258 1652.595093,373.377258 1662.282593,373.377258 
	C1661.853638,379.974548 1661.812866,386.696564 1660.899292,393.297821 
	C1659.321289,404.700867 1655.568970,415.469635 1648.956543,424.972290 
	C1639.455444,438.626495 1626.108032,446.828918 1609.952026,449.826904 
	C1601.274170,451.437225 1592.223511,452.309357 1583.434937,451.822205 
	C1553.371948,450.155823 1530.701660,437.791748 1517.918701,405.966278 
	C1512.251831,391.857422 1509.575562,377.197876 1509.001221,362.084686 
	C1508.655640,352.989990 1507.685425,343.862579 1508.131226,334.805725 
	C1509.145996,314.186646 1511.769897,293.714111 1521.530151,275.108093 
	C1532.389893,254.406448 1549.287231,241.730850 1572.947021,239.005066 
	C1579.460938,238.254639 1586.031128,236.852783 1592.509888,237.155197 
	C1610.491821,237.994522 1627.502441,242.445618 1640.801758,255.462463 
	C1651.181641,265.622131 1657.764771,278.136047 1659.962646,292.649750 
	C1661.090820,300.100281 1661.796021,307.614838 1662.752197,315.599854 
	C1652.824951,315.599854 1643.768799,315.599854 1634.763672,315.599854 
	C1633.862183,309.331055 1633.288086,302.829376 1631.946777,296.490021 
	C1628.147949,278.535187 1616.955322,266.523773 1599.205811,263.510101 
	C1581.040649,260.425873 1563.467285,264.086914 1551.109253,279.630951 
	C1544.248169,288.260925 1540.958130,298.780487 1538.979736,309.646606 
	C1535.684204,327.746429 1536.649658,346.039276 1537.247070,364.197601 
	C1537.751343,379.526947 1540.632812,394.764526 1549.983643,407.720123 
	C1558.284546,419.221191 1569.442139,425.641022 1583.878418,426.033722 
	C1592.675781,426.273010 1601.441650,426.532593 1609.670654,422.700104 
	C1622.025024,416.946228 1629.240112,406.959900 1632.966553,393.710571 
z"/>
<path fill="#019BE1" opacity="1.000000" stroke="none" 
	d="
M1283.062256,402.159668 
	C1285.019043,397.668335 1286.975830,393.177002 1289.355835,388.268005 
	C1291.490723,384.441315 1289.281250,384.037323 1286.766357,384.016968 
	C1281.795288,383.976685 1276.823486,384.016754 1271.852051,384.023621 
	C1266.637817,380.501984 1270.638184,377.441559 1271.994019,374.996368 
	C1278.567993,374.996368 1284.793335,375.093384 1291.006226,374.861816 
	C1291.707031,374.835693 1292.338623,372.955048 1293.096191,371.213623 
	C1280.236084,370.363007 1267.282104,370.225861 1254.327881,370.137146 
	C1253.927856,370.134369 1253.524536,370.633972 1253.122681,370.899384 
	C1246.348511,367.768311 1246.108398,366.183319 1251.170532,359.553558 
	C1253.481567,360.061279 1255.629761,360.916077 1257.788208,360.943054 
	C1268.864380,361.081635 1279.944336,361.074371 1291.020142,360.918793 
	C1292.346191,360.900177 1293.655029,359.670898 1294.909302,358.159607 
	C1293.042847,356.878052 1291.239502,356.057953 1289.435303,356.056305 
	C1219.070068,355.991516 1148.704712,356.000732 1078.339478,356.006317 
	C1077.011963,356.006409 1075.595215,355.826965 1074.402832,356.248352 
	C1073.954102,356.406891 1074.025269,358.037170 1073.859497,358.996521 
	C1074.901001,359.666565 1075.939575,360.915802 1076.984741,360.921265 
	C1098.603882,361.034546 1120.223633,361.009064 1141.843384,360.996399 
	C1142.661987,360.995911 1143.898071,361.162445 1144.232056,360.718689 
	C1146.583008,357.593903 1147.751587,358.901794 1149.397339,361.511292 
	C1150.970703,364.005890 1152.432007,365.929047 1149.051636,368.062897 
	C1148.036743,368.703583 1147.417236,369.970490 1145.961670,370.636047 
	C1144.659302,370.215881 1144.011719,370.018250 1143.363892,370.017792 
	C1119.499268,370.000946 1095.634644,369.989227 1071.770142,370.038757 
	C1070.531372,370.041321 1069.293701,370.587646 1068.055542,370.880798 
	C1065.319702,370.444946 1063.240967,370.199860 1063.397705,366.083466 
	C1063.769409,356.320648 1063.167969,346.523743 1063.279175,336.744232 
	C1063.292725,335.553253 1065.263184,334.384521 1066.772217,333.331055 
	C1067.217529,333.456604 1067.661011,333.520355 1067.661011,333.520355 
	C1067.661011,333.520355 1067.969604,333.147583 1067.969604,333.147583 
	C1094.045410,333.080627 1120.121338,333.005157 1146.197144,332.951202 
	C1155.499878,332.931946 1164.802734,332.964813 1174.659424,333.207581 
	C1175.464600,333.327057 1175.715820,333.212891 1175.967163,333.098694 
	C1182.934570,338.090088 1182.898682,339.568451 1175.229004,344.530731 
	C1173.764893,343.710388 1172.750488,343.051605 1171.734985,343.049866 
	C1140.001465,342.995544 1108.267822,342.986603 1076.534424,343.082458 
	C1075.418579,343.085815 1074.306274,344.227783 1072.950195,345.067932 
	C1073.062012,349.483307 1076.336548,347.929779 1078.427002,347.933441 
	C1126.390137,348.017853 1174.353271,347.998444 1222.316528,347.998444 
	C1244.799316,347.998444 1267.282227,348.045898 1289.764160,347.906250 
	C1291.509888,347.895447 1293.247559,346.573425 1294.988892,345.860840 
	C1293.240356,336.678955 1292.181641,327.292450 1289.537231,318.376251 
	C1287.192505,310.470917 1283.691284,302.746185 1279.625610,295.548950 
	C1272.197510,282.399811 1262.119507,271.418976 1249.877075,262.422302 
	C1238.770630,254.260513 1226.532227,248.465317 1213.308960,244.962982 
	C1197.988159,240.905106 1182.569092,239.507553 1166.649170,242.613480 
	C1156.858765,244.523605 1147.313965,246.621231 1138.378906,251.006821 
	C1132.401123,253.940903 1126.593506,257.221588 1120.709595,260.347137 
	C1120.875977,260.899170 1121.042358,261.451172 1121.208740,262.003204 
	C1125.090332,262.003204 1128.972290,262.042053 1132.853271,261.991669 
	C1136.316406,261.946686 1139.755981,261.392242 1141.479126,265.787720 
	C1143.142700,270.031067 1138.876953,270.522888 1136.964111,272.569611 
	C1127.628052,272.181702 1118.924316,272.020264 1110.221069,272.046814 
	C1107.520142,272.055054 1104.820679,272.573425 1102.120605,272.858215 
	C1096.419312,268.755859 1096.530884,264.680450 1103.090820,259.533997 
	C1109.205688,254.736618 1115.200684,249.290283 1122.168823,246.214966 
	C1129.258423,243.086105 1135.086670,236.931549 1143.597290,236.831177 
	C1145.801514,236.805176 1147.939453,235.043411 1150.190918,234.348633 
	C1155.839966,232.605469 1161.275391,231.107895 1167.593018,231.714066 
	C1176.238159,232.543549 1185.076050,231.184494 1193.835693,231.049561 
	C1202.923950,230.909546 1212.036377,231.676987 1220.692627,234.400085 
	C1233.907593,238.557251 1245.850586,245.238342 1257.140015,253.406219 
	C1268.070312,261.314362 1276.881470,271.157043 1284.925171,281.653687 
	C1289.675537,287.852844 1293.177734,295.121521 1296.521362,302.247040 
	C1298.853149,307.216125 1299.020386,313.337250 1301.829712,317.915741 
	C1306.676880,325.815033 1303.932129,334.195465 1304.727661,342.250610 
	C1305.580566,350.886200 1304.310303,359.727448 1304.032471,368.481049 
	C1303.942627,371.312500 1304.355103,374.184052 1304.036499,376.980103 
	C1302.142700,393.596161 1294.664307,408.194458 1285.515015,421.579620 
	C1279.401733,430.523285 1271.097534,438.185394 1262.889160,445.416870 
	C1255.549927,451.882538 1247.403809,457.706360 1238.849121,462.428009 
	C1232.469727,465.949036 1224.871704,467.262512 1217.814941,469.554932 
	C1214.288696,470.700439 1210.826538,472.206055 1207.210938,472.863464 
	C1204.157349,473.418732 1200.921631,473.066254 1197.770630,472.974731 
	C1188.013916,472.691467 1178.237549,471.820007 1168.511963,472.221558 
	C1163.104248,472.444824 1157.899902,472.392853 1152.769043,470.942657 
	C1147.556030,469.469238 1142.192505,468.154816 1137.351562,465.822632 
	C1129.238525,461.913971 1121.255493,457.617615 1113.666748,452.780151 
	C1108.605957,449.554230 1104.073853,445.359955 1099.776123,441.121490 
	C1096.563599,437.953125 1098.322998,433.527313 1103.965698,431.310669 
	C1108.098267,431.784393 1111.540283,432.054108 1114.972656,431.962036 
	C1120.649414,431.809753 1126.319702,431.424194 1131.992798,431.136902 
	C1135.528687,431.174774 1137.348755,433.435425 1137.944458,436.463287 
	C1138.593262,439.760406 1137.018311,441.855377 1133.452637,442.178589 
	C1129.529907,442.534180 1125.614990,442.976074 1121.125977,444.178650 
	C1129.083618,448.071594 1136.920532,452.243256 1145.040405,455.761566 
	C1150.648071,458.191315 1156.561279,460.065186 1162.499756,461.531799 
	C1166.771729,462.586792 1171.354370,462.309174 1175.721680,463.068054 
	C1184.931396,464.668427 1193.731689,462.394989 1202.742432,461.161041 
	C1216.245361,459.311951 1228.523682,454.511749 1240.116333,447.818695 
	C1254.448608,439.543945 1266.594482,428.746399 1275.919312,414.141418 
	C1275.586914,413.361389 1275.010254,413.023987 1274.432983,413.022827 
	C1260.203003,412.994019 1245.972900,412.979309 1231.743164,413.038910 
	C1230.501953,413.044128 1229.262695,413.580353 1228.022583,413.869934 
	C1226.068237,412.718811 1223.560181,411.958252 1222.368408,410.269043 
	C1221.661255,409.266693 1222.800781,406.699738 1223.540527,405.026703 
	C1224.066528,403.837067 1225.311035,402.965088 1226.725586,402.407990 
	C1227.726440,403.222137 1228.235352,403.889984 1228.747314,403.892212 
	C1246.457886,403.969910 1264.168823,403.996796 1281.879395,403.931305 
	C1282.275879,403.929840 1282.668091,402.775970 1283.062256,402.159668 
z"/>
<path fill="#019ADE" opacity="1.000000" stroke="none" 
	d="
M1013.999512,241.000000 
	C1020.468201,241.000000 1026.437012,241.000000 1032.700439,241.000000 
	C1032.700439,249.381897 1032.700439,257.435944 1032.700439,265.814880 
	C1002.317566,265.814880 972.055237,265.814880 941.396973,265.814880 
	C941.396973,287.846924 941.396973,309.563782 941.396973,331.783478 
	C967.922668,331.783478 994.639526,331.783478 1021.676697,331.783478 
	C1021.676697,340.332001 1021.676697,348.386536 1021.676697,356.945984 
	C994.913025,356.945984 968.196106,356.945984 941.161621,356.945984 
	C941.161621,387.372620 941.161621,417.301727 941.161621,447.614868 
	C931.797363,447.614868 922.740906,447.614868 913.339844,447.614868 
	C913.339844,379.052094 913.339844,310.354126 913.339844,241.000000 
	C946.680603,241.000000 980.090149,241.000000 1013.999512,241.000000 
z"/>
<path fill="#FFFFFF" opacity="1.000000" stroke="none" 
	d="
M888.000000,440.932312 
	C888.000000,443.408234 888.000000,445.392609 888.000000,447.687988 
	C850.761841,447.687988 813.692139,447.687988 776.310913,447.687988 
	C776.310913,379.095367 776.310913,310.361023 776.310913,241.313171 
	C784.897095,241.313171 793.637512,241.313171 802.776123,241.313171 
	C802.776123,301.573944 802.776123,361.976257 802.776123,422.776306 
	C831.238037,422.776306 859.310425,422.776306 888.000000,422.776306 
	C888.000000,428.918274 888.000000,434.679504 888.000000,440.932312 
z"/>
<path fill="#009CE4" opacity="1.000000" stroke="none" 
	d="
M1264.937744,339.041046 
	C1260.206909,343.482208 1249.436157,345.287842 1243.670410,343.416229 
	C1234.712402,340.508301 1227.635620,335.134735 1222.951416,327.276276 
	C1219.535645,321.545715 1217.492432,314.977234 1215.080322,308.689087 
	C1214.705078,307.710663 1215.887451,306.235046 1215.895874,304.986267 
	C1215.909668,302.937286 1215.246338,300.859436 1215.420044,298.841248 
	C1215.704102,295.541656 1216.107422,292.185822 1217.030518,289.019928 
	C1220.120239,278.423828 1230.794678,268.351837 1241.797607,269.175201 
	C1254.908325,270.156281 1264.314575,277.420502 1271.312866,288.792328 
	C1275.438965,295.497253 1275.992188,302.776367 1277.854736,309.857880 
	C1279.903198,317.645630 1272.348145,334.486420 1264.937744,339.041046 
M1261.578491,326.935699 
	C1263.635864,322.806763 1265.960571,318.781006 1267.613647,314.496185 
	C1268.239990,312.872772 1269.761963,309.948273 1266.029419,308.960175 
	C1265.509155,308.822449 1265.086304,307.482605 1265.002930,306.660187 
	C1264.285522,299.598846 1262.003784,293.329803 1256.668213,288.324585 
	C1250.936646,282.947784 1242.447510,278.543488 1234.698853,283.766693 
	C1230.420776,286.650482 1228.836548,290.517853 1227.723877,295.527985 
	C1224.862061,308.413574 1230.205688,321.095886 1239.169800,328.351715 
	C1245.855835,333.763550 1254.791138,333.158020 1261.578491,326.935699 
z"/>
<path fill="#019ADF" opacity="1.000000" stroke="none" 
	d="
M1071.928955,398.019958 
	C1070.254517,395.019562 1068.455322,392.079956 1066.952637,388.995850 
	C1066.056763,387.157227 1065.374268,385.133514 1065.040894,383.119324 
	C1064.392578,379.201477 1065.374634,375.855896 1069.979980,374.357666 
	C1071.298706,374.813324 1071.951660,374.986053 1072.604492,374.986359 
	C1104.481812,375.000824 1136.359131,375.010284 1168.236450,374.964752 
	C1169.469971,374.963013 1170.702881,374.417450 1171.936035,374.125244 
	C1173.755127,375.272736 1175.574097,376.420197 1178.097290,378.011841 
	C1180.040161,382.293243 1174.218384,382.951080 1172.298218,385.562500 
	C1170.286133,384.729187 1168.766479,384.050140 1167.245117,384.046692 
	C1139.130737,383.983032 1111.016357,383.998840 1082.901855,384.004333 
	C1081.738892,384.004578 1080.333008,383.666656 1079.467773,384.191193 
	C1078.045654,385.053223 1075.492310,386.374176 1079.102905,387.958496 
	C1079.102905,387.958496 1079.013672,387.982880 1079.277222,388.262817 
	C1094.935913,388.657684 1110.331177,388.778687 1125.726440,388.855377 
	C1126.141968,388.857452 1126.559814,388.380768 1126.976562,388.127350 
	C1131.978516,388.063812 1133.170532,390.228882 1131.206665,397.050598 
	C1130.091187,397.763000 1129.563232,398.303223 1129.035400,398.843445 
	C1111.318848,398.906036 1093.602295,398.968628 1075.201904,398.705719 
	C1073.654907,398.260101 1072.791992,398.140045 1071.928955,398.019958 
z"/>
<path fill="#019AE0" opacity="1.000000" stroke="none" 
	d="
M1099.021973,402.115295 
	C1101.009033,404.326538 1104.615967,406.559265 1104.586914,408.743835 
	C1104.547852,411.696747 1101.560547,414.348907 1097.572754,414.040680 
	C1096.096802,413.926575 1094.602051,414.055420 1093.115845,414.073486 
	C1093.215210,414.658844 1093.314697,415.244202 1094.025146,416.275879 
	C1120.118408,416.792694 1145.600586,416.863220 1171.082886,416.933746 
	C1176.303589,421.459534 1176.369507,422.850403 1170.958496,427.556549 
	C1144.152100,427.187042 1117.987061,427.103668 1091.822021,427.065643 
	C1091.255493,427.064819 1090.688110,427.583527 1090.121216,427.859863 
	C1087.084229,424.840363 1084.000366,421.865753 1081.039307,418.773560 
	C1080.169434,417.865082 1079.730469,416.559723 1078.952759,415.544434 
	C1074.400269,409.600647 1074.929321,406.411926 1081.729980,402.460876 
	C1087.606812,403.091339 1093.015503,403.286377 1098.425903,403.396667 
	C1098.615723,403.400543 1098.822876,402.561493 1099.021973,402.115295 
z"/>
<path fill="#009AE0" opacity="1.000000" stroke="none" 
	d="
M1094.061523,287.874054 
	C1093.350708,288.635681 1092.639893,289.397278 1091.336182,290.794098 
	C1094.016968,290.794098 1096.139038,291.441193 1097.410034,290.675629 
	C1101.622559,288.138153 1101.859619,293.465027 1104.463623,293.853577 
	C1103.920898,295.513031 1103.378174,297.172485 1102.101074,299.074097 
	C1094.228027,299.548828 1087.089111,299.781433 1079.950195,300.014038 
	C1075.973633,299.086945 1075.045166,296.922668 1076.875854,293.224884 
	C1080.088989,286.734833 1083.032104,280.092987 1090.065674,276.297394 
	C1109.208374,276.767456 1127.708130,276.872864 1146.208130,276.926788 
	C1146.778076,276.928436 1147.349609,276.395172 1147.920410,276.111298 
	C1151.151855,276.359894 1153.604736,278.341919 1153.565918,281.227936 
	C1153.539673,283.183380 1151.142700,285.107025 1148.970215,287.035034 
	C1131.677368,287.018829 1115.220215,286.989075 1098.763428,287.044159 
	C1097.195190,287.049408 1095.628784,287.584778 1094.061523,287.874054 
z"/>
<path fill="#019BE2" opacity="1.000000" stroke="none" 
	d="
M1124.880493,319.968658 
	C1130.982422,324.484344 1128.364014,326.690002 1121.324707,329.552185 
	C1120.195801,328.719757 1119.511353,328.066467 1118.824097,328.063629 
	C1103.862305,328.001526 1088.900146,327.978119 1073.938965,328.087555 
	C1072.987793,328.094482 1072.045166,329.241791 1071.098511,329.858551 
	C1067.214966,329.678040 1064.699463,327.817871 1065.063599,323.770752 
	C1065.410156,319.919067 1065.703735,315.779602 1067.330200,312.396393 
	C1069.451050,307.985016 1072.053223,303.657074 1078.798096,304.763489 
	C1084.309082,305.667480 1090.106323,305.242126 1095.739502,304.859253 
	C1100.717163,304.520966 1103.445190,306.701111 1104.933105,311.001251 
	C1102.836182,315.185272 1099.691528,316.643951 1095.014282,316.165710 
	C1090.072510,315.660400 1085.039185,316.050934 1079.236328,316.083801 
	C1076.684082,320.227264 1079.526123,319.996826 1082.106812,319.995636 
	C1096.364746,319.989197 1110.622559,319.978119 1124.880493,319.968658 
z"/>
<path fill="#007FFF" opacity="1.000000" stroke="none" 
	d="
M1294.523315,345.920837 
	C1293.247559,346.573425 1291.509888,347.895447 1289.764160,347.906250 
	C1267.282227,348.045898 1244.799316,347.998444 1222.316528,347.998444 
	C1174.353271,347.998444 1126.390137,348.017853 1078.427002,347.933441 
	C1076.336548,347.929779 1073.062012,349.483307 1073.175415,345.107788 
	C1073.642578,344.918854 1074.070557,345.086182 1074.070557,345.086182 
	C1075.583252,345.390778 1077.095825,345.961090 1078.608643,345.961884 
	C1150.425049,345.999237 1222.241333,345.987213 1294.523315,345.920837 
z"/>
<path fill="#0080FF" opacity="1.000000" stroke="none" 
	d="
M1074.097168,358.623718 
	C1074.025269,358.037170 1073.954102,356.406891 1074.402832,356.248352 
	C1075.595215,355.826965 1077.011963,356.006409 1078.339478,356.006317 
	C1148.704712,356.000732 1219.070068,355.991516 1289.435303,356.056305 
	C1291.239502,356.057953 1293.042847,356.878052 1294.917480,357.728210 
	C1276.849854,358.093323 1258.711304,358.012543 1240.572876,358.006439 
	C1186.981689,357.988464 1133.390503,357.997528 1079.799316,358.010559 
	C1077.977783,358.010986 1076.156372,358.167297 1074.097168,358.623718 
z"/>
<path fill="#00FFFF" opacity="1.000000" stroke="none" 
	d="
M1074.534302,345.047516 
	C1074.070557,345.086182 1073.642578,344.918854 1073.417480,344.878967 
	C1074.306274,344.227783 1075.418579,343.085815 1076.534424,343.082458 
	C1108.267822,342.986603 1140.001465,342.995544 1171.734985,343.049866 
	C1172.750488,343.051605 1173.764893,343.710388 1174.834961,344.459412 
	C1141.592773,344.906952 1108.295410,344.957886 1074.534302,345.047516 
z"/>
<path fill="#0080FF" opacity="1.000000" stroke="none" 
	d="
M1079.082520,387.526520 
	C1075.492310,386.374176 1078.045654,385.053223 1079.467773,384.191193 
	C1080.333008,383.666656 1081.738892,384.004578 1082.901855,384.004333 
	C1111.016357,383.998840 1139.130737,383.983032 1167.245117,384.046692 
	C1168.766479,384.050140 1170.286133,384.729187 1171.901733,385.483398 
	C1142.637695,385.915375 1113.278442,385.940430 1083.919556,386.046387 
	C1082.299194,386.052246 1080.681152,386.729706 1079.082520,387.526520 
z"/>
<path fill="#0080BF" opacity="1.000000" stroke="none" 
	d="
M1282.593018,402.095032 
	C1282.668091,402.775970 1282.275879,403.929840 1281.879395,403.931305 
	C1264.168823,403.996796 1246.457886,403.969910 1228.747314,403.892212 
	C1228.235352,403.889984 1227.726440,403.222137 1227.099121,402.480164 
	C1245.362671,402.073883 1263.743286,402.052124 1282.593018,402.095032 
z"/>
<path fill="#00FFFF" opacity="1.000000" stroke="none" 
	d="
M1171.474487,374.068787 
	C1170.702881,374.417450 1169.469971,374.963013 1168.236450,374.964752 
	C1136.359131,375.010284 1104.481812,375.000824 1072.604492,374.986359 
	C1071.951660,374.986053 1071.298706,374.813324 1070.360840,374.423645 
	C1103.721558,374.088257 1137.367188,374.050293 1171.474487,374.068787 
z"/>
<path fill="#00FFFF" opacity="1.000000" stroke="none" 
	d="
M1071.555298,329.922424 
	C1072.045166,329.241791 1072.987793,328.094482 1073.938965,328.087555 
	C1088.900146,327.978119 1103.862305,328.001526 1118.824097,328.063629 
	C1119.511353,328.066467 1120.195801,328.719757 1120.936768,329.475403 
	C1104.665405,329.915924 1088.338745,329.951111 1071.555298,329.922424 
z"/>
<path fill="#00A8FF" opacity="1.000000" stroke="none" 
	d="
M1124.808838,319.569824 
	C1110.622559,319.978119 1096.364746,319.989197 1082.106812,319.995636 
	C1079.526123,319.996826 1076.684082,320.227264 1078.775635,316.075867 
	C1080.411865,316.688904 1081.692871,317.896729 1082.988037,317.912048 
	C1095.213135,318.056763 1107.441162,317.953094 1119.667236,318.050262 
	C1121.359985,318.063721 1123.047241,318.780029 1124.808838,319.569824 
z"/>
<path fill="#00FFFF" opacity="1.000000" stroke="none" 
	d="
M1090.576660,427.923157 
	C1090.688110,427.583527 1091.255493,427.064819 1091.822021,427.065643 
	C1117.987061,427.103668 1144.152100,427.187042 1170.595459,427.562988 
	C1144.259766,427.902618 1117.645874,427.944519 1090.576660,427.923157 
z"/>
<path fill="#0080FF" opacity="1.000000" stroke="none" 
	d="
M1068.517090,370.932190 
	C1069.293701,370.587646 1070.531372,370.041321 1071.770142,370.038757 
	C1095.634644,369.989227 1119.499268,370.000946 1143.363892,370.017792 
	C1144.011719,370.018250 1144.659302,370.215881 1145.589844,370.610046 
	C1120.241333,370.926849 1094.609985,370.955200 1068.517090,370.932190 
z"/>
<path fill="#00FFFF" opacity="1.000000" stroke="none" 
	d="
M1170.859375,416.557922 
	C1145.600586,416.863220 1120.118408,416.792694 1094.350586,416.423523 
	C1119.588745,416.143951 1145.112183,416.163055 1170.859375,416.557922 
z"/>
<path fill="#0080FF" opacity="1.000000" stroke="none" 
	d="
M1147.461060,276.063416 
	C1147.349609,276.395172 1146.778076,276.928436 1146.208130,276.926788 
	C1127.708130,276.872864 1109.208374,276.767456 1090.429199,276.381042 
	C1109.100464,276.066772 1128.051147,276.041168 1147.461060,276.063416 
z"/>
<path fill="#00FFFF" opacity="1.000000" stroke="none" 
	d="
M1094.523193,287.930786 
	C1095.628784,287.584778 1097.195190,287.049408 1098.763428,287.044159 
	C1115.220215,286.989075 1131.677368,287.018829 1148.605713,287.052490 
	C1147.569702,287.386566 1146.063354,287.954468 1144.554932,287.959930 
	C1128.031738,288.019714 1111.508301,287.991699 1094.523193,287.930786 
z"/>
<path fill="#007FFF" opacity="1.000000" stroke="none" 
	d="
M1228.487061,413.925781 
	C1229.262695,413.580353 1230.501953,413.044128 1231.743164,413.038910 
	C1245.972900,412.979309 1260.203003,412.994019 1274.432983,413.022827 
	C1275.010254,413.023987 1275.586914,413.361389 1276.006836,413.808777 
	C1260.217163,414.044159 1244.584351,414.012909 1228.487061,413.925781 
z"/>
<path fill="#0080FF" opacity="1.000000" stroke="none" 
	d="
M1126.511963,388.072693 
	C1126.559814,388.380768 1126.141968,388.857452 1125.726440,388.855377 
	C1110.331177,388.778687 1094.935913,388.657684 1079.268311,388.217407 
	C1094.679810,387.934082 1110.363647,387.976044 1126.511963,388.072693 
z"/>
<path fill="#00ABFF" opacity="1.000000" stroke="none" 
	d="
M1080.008789,300.445648 
	C1087.089111,299.781433 1094.228027,299.548828 1101.776733,299.211670 
	C1101.130981,300.067627 1100.111450,301.808075 1099.014038,301.858643 
	C1093.142944,302.128906 1087.252319,302.000702 1081.369385,301.924622 
	C1080.930908,301.918945 1080.501099,301.242096 1080.008789,300.445648 
z"/>
<path fill="#0080FF" opacity="1.000000" stroke="none" 
	d="
M1253.577881,370.943359 
	C1253.524536,370.633972 1253.927856,370.134369 1254.327881,370.137146 
	C1267.282104,370.225861 1280.236084,370.363007 1293.069458,370.777740 
	C1279.976929,371.037476 1267.005005,371.012390 1253.577881,370.943359 
z"/>
<path fill="#0080FF" opacity="1.000000" stroke="none" 
	d="
M1272.062988,384.371185 
	C1276.823486,384.016754 1281.795288,383.976685 1286.766357,384.016968 
	C1289.281250,384.037323 1291.490723,384.441315 1289.442261,387.884766 
	C1287.875732,387.279419 1286.700684,386.252655 1285.406738,386.070557 
	C1281.052002,385.457886 1276.654785,385.145813 1272.062988,384.371185 
z"/>
<path fill="#00FFFF" opacity="1.000000" stroke="none" 
	d="
M1102.575928,272.922241 
	C1104.820679,272.573425 1107.520142,272.055054 1110.221069,272.046814 
	C1118.924316,272.020264 1127.628052,272.181702 1136.613525,272.567413 
	C1125.607422,272.904846 1114.319336,272.945557 1102.575928,272.922241 
z"/>
<path fill="#0080BF" opacity="1.000000" stroke="none" 
	d="
M1098.554932,402.068390 
	C1098.822876,402.561493 1098.615723,403.400543 1098.425903,403.396667 
	C1093.015503,403.286377 1087.606812,403.091339 1082.085815,402.525574 
	C1087.345215,402.101166 1092.716553,402.061310 1098.554932,402.068390 
z"/>
<path fill="#0081FF" opacity="1.000000" stroke="none" 
	d="
M1131.526855,431.078552 
	C1126.319702,431.424194 1120.649414,431.809753 1114.972656,431.962036 
	C1111.540283,432.054108 1108.098267,431.784393 1104.358887,431.398743 
	C1113.058594,431.086945 1122.059814,431.053558 1131.526855,431.078552 
z"/>
<path fill="#00ABFF" opacity="1.000000" stroke="none" 
	d="
M1072.083008,398.331512 
	C1072.791992,398.140045 1073.654907,398.260101 1074.736328,398.625793 
	C1074.048828,398.795288 1073.142944,398.719177 1072.083008,398.331512 
z"/>
<path fill="#00ABFF" opacity="1.000000" stroke="none" 
	d="
M1129.384521,398.907166 
	C1129.563232,398.303223 1130.091187,397.763000 1130.901855,397.176819 
	C1130.701050,397.744171 1130.217407,398.357513 1129.384521,398.907166 
z"/>
<path fill="#00AAFF" opacity="1.000000" stroke="none" 
	d="
M1067.735596,333.104309 
	C1067.969604,333.147583 1067.661011,333.520355 1067.661011,333.520355 
	C1067.661011,333.520355 1067.217529,333.456604 1067.128174,333.314941 
	C1067.038940,333.173279 1067.501587,333.061035 1067.735596,333.104309 
z"/>
<path fill="#00AAFF" opacity="1.000000" stroke="none" 
	d="
M1175.732056,333.071533 
	C1175.715820,333.212891 1175.464600,333.327057 1175.123535,333.291870 
	C1175.033813,333.142517 1175.496948,333.044403 1175.732056,333.071533 
z"/>
<path fill="#ffffff" opacity="1.000000" stroke="none" 
	d="
M473.000000,406.997437 
	C473.000000,389.539551 473.000000,372.580902 473.000000,355.000000 
	C478.076538,355.000000 482.995239,355.000000 487.913910,355.000000 
	C498.397919,355.000000 508.886078,355.187134 519.365051,354.957153 
	C536.074890,354.590424 549.408142,366.535797 552.861267,381.864746 
	C555.661743,394.296661 552.841980,405.589294 543.609924,414.903107 
	C538.571045,419.986542 532.055664,422.565521 525.399536,422.797607 
	C508.137634,423.399353 490.840820,422.999603 473.000000,422.999603 
	C473.000000,417.686523 473.000000,412.591614 473.000000,406.997437 
z"/>
<path fill="#ffffff" opacity="1.000000" stroke="none" 
	d="
M489.002533,330.000000 
	C483.526581,330.000000 478.549866,330.000000 473.288025,330.000000 
	C473.288025,308.719910 473.288025,287.653931 473.288025,266.000000 
	C474.959747,266.000000 476.722443,266.000000 478.485138,266.000000 
	C491.812683,266.000000 505.140228,266.009186 518.467773,265.997040 
	C528.769287,265.987671 537.228577,269.551849 543.613892,277.999390 
	C550.687988,287.358276 550.183960,307.723602 542.787292,316.823486 
	C535.134216,326.238800 525.240601,330.016266 513.491272,330.001862 
	C505.494781,329.992065 497.498260,330.000000 489.002533,330.000000 
z"/>
<path fill="#ffffff" opacity="1.000000" stroke="none" 
	d="
M1445.732910,322.764557 
	C1438.440674,328.832611 1430.520630,332.092682 1421.237915,332.033813 
	C1403.080566,331.918640 1384.921875,332.000000 1366.382080,332.000000 
	C1366.382080,310.115753 1366.382080,288.392883 1366.382080,266.339142 
	C1367.330200,266.237335 1368.432251,266.017059 1369.534546,266.015778 
	C1388.032715,265.994354 1406.555420,265.408508 1425.021729,266.175476 
	C1441.671021,266.867004 1454.801880,277.844849 1455.109985,296.427307 
	C1455.275879,306.439178 1453.121094,315.242157 1445.732910,322.764557 
z"/>
<path fill="#ffffff" opacity="1.000000" stroke="none" 
	d="
M215.790070,279.415894 
	C222.379074,291.495697 222.897217,303.537689 216.787964,315.401306 
	C211.411407,325.842163 201.922714,331.381378 190.613754,331.798767 
	C170.992264,332.523041 151.324753,331.999969 131.000000,331.999969 
	C131.000000,320.983795 131.000000,310.070404 131.000000,299.157043 
	C131.000000,288.335358 131.000000,277.513672 131.000000,266.309509 
	C132.323898,266.202698 133.579971,266.014587 134.836273,266.013123 
	C151.494156,265.993469 168.153732,266.143768 184.809448,265.952362 
	C197.091995,265.811249 207.779785,268.974976 215.790070,279.415894 
z"/>
<path fill="#ffffff" opacity="1.000000" stroke="none" 
	d="
M1261.307617,327.206390 
	C1254.791138,333.158020 1245.855835,333.763550 1239.169800,328.351715 
	C1230.205688,321.095886 1224.862061,308.413574 1227.723877,295.527985 
	C1228.836548,290.517853 1230.420776,286.650482 1234.698853,283.766693 
	C1242.447510,278.543488 1250.936646,282.947784 1256.668213,288.324585 
	C1262.003784,293.329803 1264.285522,299.598846 1265.002930,306.660187 
	C1265.086304,307.482605 1265.509155,308.822449 1266.029419,308.960175 
	C1269.761963,309.948273 1268.239990,312.872772 1267.613647,314.496185 
	C1265.960571,318.781006 1263.635864,322.806763 1261.307617,327.206390 
M1253.113403,312.457672 
	C1256.361084,308.351105 1255.285889,302.883759 1250.444458,298.885681 
	C1247.754150,296.664062 1241.596558,296.676025 1239.603394,298.906830 
	C1236.743896,302.107178 1237.833130,311.216827 1241.943604,314.345093 
	C1246.777466,318.023865 1249.145874,318.002472 1253.113403,312.457672 
z"/>
<path fill="#009BE4" opacity="1.000000" stroke="none" 
	d="
M1253.027832,312.841125 
	C1249.145874,318.002472 1246.777466,318.023865 1241.943604,314.345093 
	C1237.833130,311.216827 1236.743896,302.107178 1239.603394,298.906830 
	C1241.596558,296.676025 1247.754150,296.664062 1250.444458,298.885681 
	C1255.285889,302.883759 1256.361084,308.351105 1253.027832,312.841125 
z"/>
</svg>